<?xml version="1.0" standalone="no"?>
<!DOCTYPE svg PUBLIC "-//W3C//DTD SVG 20010904//EN"
 "http://www.w3.org/TR/2001/REC-SVG-20010904/DTD/svg10.dtd">
<svg version="1.0" xmlns="http://www.w3.org/2000/svg"
 width="400.000000pt" height="400.000000pt" viewBox="0 0 400.000000 400.000000"
 preserveAspectRatio="xMidYMid meet">
<metadata>
Created by potrace 1.11, written by Peter Selinger 2001-2013
</metadata>
<g transform="translate(0.000000,400.000000) scale(0.100000,-0.100000)"
fill="#000000" stroke="none">
<path d="M620 2769 c-32 -13 -68 -47 -86 -81 -18 -35 -18 -121 1 -158 35 -67
127 -104 198 -81 71 24 127 122 112 194 -22 104 -130 164 -225 126z m128 -49
c88 -54 73 -198 -24 -230 -52 -17 -97 -5 -133 36 -98 111 31 271 157 194z"/>
<path d="M1665 2768 c-32 -17 -45 -39 -45 -78 0 -45 27 -76 80 -90 45 -12 70
-33 70 -61 0 -25 -35 -59 -60 -59 -23 0 -60 33 -60 55 0 8 -9 15 -20 15 -31 0
-25 -37 14 -76 37 -37 70 -43 115 -20 28 15 51 53 51 86 0 44 -23 69 -84 93
-52 20 -61 27 -64 51 -4 36 13 56 49 56 22 0 32 -7 44 -31 9 -16 22 -29 28
-26 23 7 18 43 -9 70 -29 29 -73 35 -109 15z"/>
<path d="M0 2756 c0 -10 13 -16 38 -18 l37 -3 3 -142 c2 -135 4 -143 22 -143
19 0 20 7 20 145 l0 145 40 0 c29 0 40 4 40 15 0 12 -18 15 -100 15 -80 0
-100 -3 -100 -14z"/>
<path d="M240 2610 c0 -153 1 -160 20 -160 18 0 20 7 20 70 l0 70 70 0 70 0 0
-70 c0 -63 2 -70 20 -70 19 0 20 7 20 160 0 153 -1 160 -20 160 -18 0 -20 -7
-20 -70 l0 -70 -70 0 -70 0 0 70 c0 63 -2 70 -20 70 -19 0 -20 -7 -20 -160z"/>
<path d="M910 2610 c0 -134 2 -160 15 -160 12 0 15 22 17 118 l3 117 57 -117
c31 -65 63 -118 70 -118 7 0 39 51 70 113 l57 112 0 -112 c1 -106 2 -113 21
-113 19 0 20 7 20 160 0 159 0 160 -22 160 -19 0 -33 -21 -84 -128 l-61 -127
-61 128 c-49 102 -65 127 -81 127 -20 0 -21 -5 -21 -160z"/>
<path d="M1352 2623 c-34 -82 -62 -154 -62 -161 0 -7 8 -12 18 -12 12 0 24 16
37 50 l19 50 68 0 67 0 22 -50 c15 -35 27 -50 40 -50 11 0 19 3 19 8 0 4 -28
75 -63 157 -84 202 -85 202 -165 8z m128 -30 c0 -2 -22 -3 -49 -3 l-50 0 27
60 26 61 23 -57 c13 -32 23 -59 23 -61z"/>
<path d="M1804 2317 c-3 -8 -4 -30 -2 -49 l3 -33 71 -7 c217 -22 369 -168 405
-392 23 -137 -35 -302 -137 -396 -102 -92 -197 -125 -341 -118 -82 5 -103 10
-168 42 -152 75 -254 230 -255 384 l0 42 -50 0 -50 0 0 -45 c0 -246 206 -478
459 -516 287 -43 544 117 625 390 25 84 21 249 -7 332 -75 221 -230 336 -500
374 -37 5 -48 3 -53 -8z"/>
<path d="M15 2308 c-3 -7 -4 -254 -3 -548 l3 -535 33 -3 c64 -6 62 -23 63 452
l1 431 218 -442 c219 -442 219 -443 250 -443 31 0 32 1 250 443 l218 442 1
-431 c1 -475 -1 -458 63 -452 l33 3 0 545 0 545 -34 3 c-67 7 -74 0 -136 -130
-32 -68 -134 -275 -227 -462 l-168 -339 -229 467 -230 466 -51 0 c-31 0 -52
-5 -55 -12z"/>
<path d="M2511 2306 c-8 -9 -10 -161 -9 -547 l3 -534 45 0 45 0 3 499 2 498
173 -4 c141 -3 178 -7 207 -22 114 -59 165 -189 126 -320 -34 -114 -100 -156
-256 -165 -95 -5 -105 -8 -108 -26 -1 -13 55 -102 153 -240 l156 -220 47 0
c39 0 47 3 50 20 2 12 -43 83 -118 188 -66 92 -120 172 -120 177 0 6 13 10 28
10 92 0 193 73 244 178 31 62 33 74 33 167 0 89 -3 106 -27 155 -64 129 -133
174 -293 190 -155 15 -370 13 -384 -4z"/>
<path d="M3563 2292 c-98 -34 -169 -110 -201 -211 -14 -47 -17 -99 -17 -321 0
-253 1 -268 23 -321 30 -76 90 -142 160 -176 57 -28 58 -28 262 -28 l205 0 0
40 0 40 -185 6 c-106 4 -198 11 -215 18 -55 22 -93 60 -124 122 l-31 62 0 237
c0 307 14 356 118 417 46 27 51 28 232 31 113 2 190 8 198 14 7 7 12 26 10 47
l-3 36 -190 2 c-161 2 -198 0 -242 -15z"/>
<path d="M3752 1788 l3 -43 120 0 120 0 0 40 0 40 -123 3 -123 3 3 -43z"/>
</g>
</svg>
